# xmcd
#
# Track frame offsets:
#	150
#	12863
#	25825
#	35503
#	48808
#	66265
#	82715
#	92810
#	107808
#	119100
#	136185
#	151513
#	166523
#	180685
#	193680
#	206633
#	221865
#	234648
#	247933
#	263395
#	279245
#	292465
#	307618
#
# Disc length: 4348 seconds
#
# Revision: 3
# Processed by: cddbd v1.5.2PL0 Copyright (c) Steve Scherf et al.
# Submitted via: audiograbber 1.83.01
#
DISCID=3210fa17
DTITLE=Various Artist - Fifty Years Of Country Music From Mercury - 1970-1995 
DTITLE=[CD3)
DYEAR=1900
DGENRE=Oldies
TTITLE0=Billy Joe Shaver - Chicken On The Ground
TTITLE1=Jerry Lee Lewis - Would You Take Another Chance On Me
TTITLE2=Johnny Rodriguez - Ridin' My Thumb To Mexico
TTITLE3=Jerry Kennedy and Friends - She Even Woke Me Up To Say Goodbye
TTITLE4=Jo-El Sonnier - Come On Joe
TTITLE5=Sonny Throckmorton - Last Cheater's Waltz
TTITLE6=Kendalls - Teach Me To Cheat
TTITLE7=Merle Haggard and Leona Williams - Sally Let Your Bangs Hang Down
TTITLE8=Statler Brothers - Oh Baby Mine (I Get So Lonely)
TTITLE9=Johnny Paycheck - Old Violin
TTITLE10=Kathy Mattea - Eighteen Wheels And A Dozen Roses
TTITLE11=Larry Boone - Don't Give Candy To A Stranger
TTITLE12=Donna Fargo - Our Last Night
TTITLE13=Wayne Toups - Johnnie Can't Dance
TTITLE14=Kentucky Headhunters - Dumas Walker
TTITLE15=Johnny Cash - Goin' By The Book
TTITLE16=Normaltown Flyers - Rockin' The Love Boat
TTITLE17=Sammy Kershaw - Cadillac Style
TTITLE18=Billy Ray Cyrus - Achy Breaky Heart
TTITLE19=Toby Keith - Should've Been A Cowboy
TTITLE20=John and Audrey Wiggins - Falling Out Of Love
TTITLE21=Wesley Dennis - (That's Why They Call It Cheatin') It Ain't Fair
TTITLE22=Shania Twain - Any Man Of Mine
EXTD=
EXTT0=
EXTT1=
EXTT2=
EXTT3=
EXTT4=
EXTT5=
EXTT6=
EXTT7=
EXTT8=
EXTT9=
EXTT10=
EXTT11=
EXTT12=
EXTT13=
EXTT14=
EXTT15=
EXTT16=
EXTT17=
EXTT18=
EXTT19=
EXTT20=
EXTT21=
EXTT22=
PLAYORDER=
